<?xml version="1.0" encoding="utf-8"?>
<?xml-stylesheet type="text/xsl" href="rss1.xsl"?>
<rss version="2.0" xmlns:atom="http://www.w3.org/2005/Atom" xmlns:content="http://purl.org/rss/1.0/modules/content/" xmlns:dc="http://purl.org/dc/elements/1.1/" xmlns:media="http://search.yahoo.com/mrss/">
<channel>
 <title>Getty</title>
 <link>http://www.gettyimg.com/</link>
 <atom:link href="http://www.gettyimg.com/" rel="self" type="application/rss+xml" />

 
                <item>
                <title><![CDATA[【PRORES HD】Lenny Kravitz - TK421 (ProRes 1080)]]></title>
                <link><![CDATA[https://sharemania.us/threads/lenny-kravitz-tk421-prores-1080.231007/]]></link>
                <description><![CDATA[<article>
<blockquote class="messageText SelectQuoteContainer ugc baseHtml">
<div style="text-align: center"><img src="https://i.imgur.com/ih6L06Z.gif" class="bbCodeImage LbImage" alt="[​IMG]" data-url="https://i.imgur.com/ih6L06Z.gif" style=""><br>
​</div>
<div class="ToggleTriggerAnchor bbCodeSpoilerContainer">
<button type="button" class="button bbCodeSpoilerButton ToggleTrigger Tooltip JsOnly" data-target="> .SpoilerTarget"><span>Spoiler: <span class="SpoilerTitle">ProRes</span></span></button>
<div class="SpoilerTarget bbCodeSpoilerText">
<div class="bbCodeBlock bbCodeCode">
<div class="type">Code:</div>
<pre>Format                                   : MPEG-4
Format profile                           : QuickTime
Codec ID                                 : qt   0000.02 (qt  )
File size                                : 3.21 GiB
Duration                                 : 3 min 24 s
Overall bit rate mode                    : Variable
Overall bit rate                         : 135 Mb/s
Encoded date                             : UTC 2023-10-18 11:12:05
Tagged date                              : UTC 2023-10-18 11:12:05
Writing application                      : Blackmagic Design DaVinci Resolve
Writing library                          : Apple QuickTime

Video
ID                                       : 1
Format                                   : ProRes
Format version                           : Version 0
Format profile                           : 422
Codec ID                                 : apcn
Duration                                 : 3 min 24 s
Bit rate mode                            : Variable
Bit rate                                 : 133 Mb/s
Width                                    : 2 076 pixels
Height                                   : 1 188 pixels
Display aspect ratio                     : 16:9
Frame rate mode                          : Constant
Frame rate                               : 25.000 FPS
Color space                              : YUV
Chroma subsampling                       : 4:2:2
Scan type                                : Progressive
Bits/(Pixel*Frame)                       : 2.162
Stream size                              : 3.18 GiB (99%)
Writing library                          : Apple
Encoded date                             : UTC 2023-10-18 11:12:05
Tagged date                              : UTC 2023-10-18 11:12:05
Color primaries                          : BT.709
Transfer characteristics                 : BT.709
Matrix coefficients                      : BT.709

Audio
ID                                       : 2
Format                                   : PCM
Format settings                          : Little / Signed
Codec ID                                 : lpcm
Duration                                 : 3 min 24 s
Bit rate mode                            : Constant
Bit rate                                 : 1 536 kb/s
Channel(s)                               : 2 channels
Channel layout                           : L R
Sampling rate                            : 48.0 kHz
Bit depth                                : 16 bits
Stream size                              : 37.5 MiB (1%)
Default                                  : Yes
Alternate group                          : 1
Encoded date                             : UTC 2023-10-18 11:12:05
Tagged date                              : UTC 2023-10-18 11:12:05

Other
ID                                       : 3
Type                                     : Time code
Format                                   : QuickTime TC
Duration                                 : 3 min 24 s
Frame rate                               : 25.000 FPS
Time code of first frame                 : 01:00:00:00
Time code, striped                       : Yes
Language                                 : English
Default                                  : No
Encoded date                             : UTC 2023-10-18 11:12:05
Tagged date                              : UTC 2023-10-18 11:12:05</pre>
</div><div style="text-align: center">​</div></div>
</div><div style="text-align: center">
<div class="bbCodeBlock bbCodeVfcHH HiddenContent">
<div class="attribution type">Hidden Content:</div>
<blockquote>You must reply before you can see the hidden data contained here.</blockquote>
</div></div>
<div class="messageTextEndMarker">&nbsp;</div>
</blockquote>
</article>]]></description>
                <author><![CDATA[fstambuk]]></author>
                </item>

                
                <item>
                <title><![CDATA[【Singers/Musicians】UHQ of Taylor Swift for 1989 (Taylor's Version) photos with a better filter]]></title>
                <link><![CDATA[https://sharemania.us/threads/uhq-of-taylor-swift-for-1989-taylors-version-photos-with-a-better-filter.231008/]]></link>
                <description><![CDATA[<article>
<blockquote class="messageText SelectQuoteContainer ugc baseHtml">
<img src="https://images2.imgbox.com/ac/15/4zkiS9fp_o.jpg" class="bbCodeImage LbImage" alt="[​IMG]" data-url="https://images2.imgbox.com/ac/15/4zkiS9fp_o.jpg" style=""><br>
<img src="https://images2.imgbox.com/63/c8/vqkHMSGK_o.jpg" class="bbCodeImage LbImage" alt="[​IMG]" data-url="https://images2.imgbox.com/63/c8/vqkHMSGK_o.jpg" style=""> <br>
<div class="bbCodeBlock bbCodeVfcHH HiddenContent">
<div class="attribution type">Hidden Content:</div>
<blockquote>You must reply before you can see the hidden data contained here.</blockquote>
</div>
<div class="messageTextEndMarker">&nbsp;</div>
</blockquote>
</article>]]></description>
                <author><![CDATA[Cauã]]></author>
                </item>

                </channel></rss>